<svg xmlns="http://www.w3.org/2000/svg" version="1.1" xmlns:xlink="http://www.w3.org/1999/xlink" xmlns:svgjs="http://svgjs.dev/svgjs" width="1500" height="594" viewBox="0 0 1500 594"><g transform="matrix(1,0,0,1,-0.9090909090911055,0.6933210441326878)"><svg viewBox="0 0 396 157" data-background-color="#000000" preserveAspectRatio="xMidYMid meet" height="594" width="1500" xmlns="http://www.w3.org/2000/svg" xmlns:xlink="http://www.w3.org/1999/xlink"><g id="tight-bounds" transform="matrix(1,0,0,1,0.24000000000003752,-0.1832515217657118)"><svg viewBox="0 0 395.5199999999999 157.36650304353142" height="157.36650304353142" width="395.5199999999999"><g><svg viewBox="0 0 395.52000000000004 157.36650304353145" height="157.36650304353142" width="395.5199999999999"><g transform="matrix(1,0,0,1,0,103.48815070443041)"><svg viewBox="0 0 395.52000000000004 53.878352339101035" height="53.878352339101035" width="395.52000000000004"><g id="textblocktransform"><svg viewBox="0 0 395.52000000000004 53.878352339101035" height="53.878352339101035" width="395.52000000000004" id="textblock"><g><svg viewBox="0 0 395.52000000000004 53.878352339101035" height="53.878352339101035" width="395.52000000000004"><g transform="matrix(1,0,0,1,0,0)"><svg width="395.52000000000004" viewBox="2.9776747626138453 -33.78508009909157 336.66277523738614 45.860863439199576" height="53.878352339101035" data-palette-color="url(#45df6c17-3bf9-4330-aba0-116a7db8063f)"></svg></g></svg></g></svg></g></svg></g><g transform="matrix(1,0,0,1,147.74602109233064,0)"><svg viewBox="0 0 100.02795781533877 87.17517408466549" height="87.17517408466549" width="100.02795781533877"><g><svg xmlns="http://www.w3.org/2000/svg" xmlns:xlink="http://www.w3.org/1999/xlink" version="1.0" x="0" y="0" viewBox="1.118 4.1185758 47.921 41.76353899999999" enable-background="new 0 0 50 50" xml:space="preserve" height="87.17517408466549" width="100.02795781533877" class="icon-icon-0" data-fill-palette-color="accent" id="icon-0"><g fill="#001f3f" data-fill-palette-color="accent"><g fill="#001f3f" data-fill-palette-color="accent"><polygon fill="#001f3f" points="10.821,24.951 21,32.193 21,39.035 1.118,24.891 21,11.118 21,17.9   " data-fill-palette-color="accent"></polygon></g><g fill="#001f3f" data-fill-palette-color="accent"><polygon fill="#001f3f" points="49.039,25.277 35.815,16.063 34.219,21.712 39.475,25.338 31.411,30.97 29,38.79 29,39.424   " data-fill-palette-color="accent"></polygon></g><rect x="25.577" y="3.983" transform="matrix(0.9606 0.278 -0.278 0.9606 8.0575 -6.8179)" fill="#001f3f" width="4.981" height="42.035" data-fill-palette-color="accent"></rect></g></svg></g></svg></g><g></g></svg></g><defs></defs><mask id="74e432f5-8ce3-4403-affe-6b47b2b44b2c"><g id="SvgjsG1988"><svg viewBox="0 0 395.5199999999999 157.36650304353142" height="157.36650304353142" width="395.5199999999999"><g><svg viewBox="0 0 395.52000000000004 157.36650304353145" height="157.36650304353142" width="395.5199999999999"><g transform="matrix(1,0,0,1,0,103.48815070443041)"><svg viewBox="0 0 395.52000000000004 53.878352339101035" height="53.878352339101035" width="395.52000000000004"><g id="SvgjsG1987"><svg viewBox="0 0 395.52000000000004 53.878352339101035" height="53.878352339101035" width="395.52000000000004" id="SvgjsSvg1986"><g><svg viewBox="0 0 395.52000000000004 53.878352339101035" height="53.878352339101035" width="395.52000000000004"><g transform="matrix(1,0,0,1,0,0)"><svg width="395.52000000000004" viewBox="2.9776747626138453 -33.78508009909157 336.66277523738614 45.860863439199576" height="53.878352339101035" data-palette-color="url(#45df6c17-3bf9-4330-aba0-116a7db8063f)"><path d="M24.969 3.343l4.385 2.978c-1.144 1.433-2.5 2.571-4.067 3.412-1.568 0.841-3.304 1.382-5.209 1.62v0c-2.097 0.263-4.073 0.124-5.928-0.416-1.855-0.54-3.534-1.475-5.038-2.805-1.503-1.323-2.769-3.063-3.798-5.218-1.024-2.163-1.72-4.719-2.09-7.67v0c-0.37-2.95-0.324-5.59 0.136-7.918 0.467-2.33 1.266-4.321 2.396-5.975 1.13-1.653 2.536-2.982 4.217-3.985 1.676-0.996 3.546-1.624 5.609-1.882v0c1.905-0.239 3.721-0.147 5.447 0.275 1.727 0.429 3.321 1.196 4.783 2.303v0l-3.507 4.017c-0.909-0.82-1.872-1.375-2.89-1.664-1.025-0.295-2.06-0.377-3.104-0.245v0c-1.171 0.147-2.261 0.508-3.271 1.085-1.002 0.582-1.857 1.456-2.564 2.619-0.713 1.171-1.199 2.626-1.459 4.365-0.266 1.74-0.262 3.832 0.011 6.278v0c0.332 2.377 0.831 4.377 1.498 6 0.674 1.622 1.481 2.915 2.421 3.879 0.94 0.957 1.957 1.619 3.051 1.986 1.093 0.36 2.209 0.469 3.346 0.326v0c1.144-0.143 2.19-0.483 3.138-1.018 0.947-0.542 1.776-1.324 2.487-2.347zM46.659-19.11v0c1.844-0.184 3.548 0.008 5.113 0.576 1.571 0.567 2.942 1.418 4.114 2.554 1.172 1.136 2.129 2.501 2.87 4.095 0.736 1.602 1.199 3.354 1.389 5.259v0c0.191 1.911 0.067 3.732-0.37 5.463-0.437 1.732-1.145 3.263-2.125 4.594-0.972 1.336-2.18 2.422-3.624 3.255-1.444 0.834-3.089 1.343-4.933 1.527v0c-1.877 0.187-3.621 0.006-5.23-0.543-1.615-0.542-3.019-1.381-4.21-2.515-1.185-1.135-2.145-2.499-2.881-4.094-0.743-1.601-1.21-3.37-1.403-5.307-0.194-1.944-0.063-3.789 0.392-5.537 0.449-1.746 1.164-3.272 2.147-4.575 0.976-1.303 2.209-2.374 3.699-3.213 1.491-0.839 3.175-1.352 5.052-1.539zM48.551 3.685v0c0.949-0.095 1.792-0.41 2.528-0.946 0.73-0.542 1.333-1.245 1.81-2.11 0.477-0.865 0.828-1.871 1.055-3.019 0.221-1.148 0.267-2.358 0.141-3.632v0c-0.126-1.267-0.398-2.443-0.814-3.527-0.41-1.085-0.919-2.022-1.527-2.812-0.608-0.79-1.322-1.402-2.143-1.837-0.814-0.435-1.695-0.605-2.643-0.51v0c-0.955 0.095-1.807 0.421-2.556 0.979-0.748 0.557-1.361 1.271-1.836 2.142-0.477 0.865-0.809 1.859-0.999 2.984-0.195 1.132-0.23 2.331-0.104 3.598v0c0.127 1.274 0.383 2.461 0.768 3.562 0.385 1.107 0.887 2.045 1.506 2.814 0.627 0.775 1.337 1.381 2.131 1.818 0.8 0.429 1.694 0.595 2.683 0.496zM70.269 3.346v0c-1.319-1.278-2.34-2.903-3.063-4.875-0.722-1.965-1.16-3.968-1.313-6.008v0c-0.186-2.486 0-4.599 0.558-6.34 0.558-1.74 1.34-3.176 2.345-4.307 1.005-1.132 2.151-1.98 3.439-2.544 1.289-0.558 2.571-0.885 3.847-0.981v0c1.562-0.117 3.008 0.045 4.339 0.488 1.331 0.448 2.348 1.094 3.053 1.937v0l-0.968-12.914 5.834-0.437 2.785 37.155-5.494 0.412c-0.107-0.54-0.205-1.084-0.293-1.632-0.088-0.555-0.184-1.069-0.286-1.543v0c-0.062 0.419-0.31 0.852-0.745 1.299-0.427 0.453-0.988 0.873-1.681 1.259-0.693 0.386-1.478 0.709-2.354 0.969-0.883 0.26-1.803 0.426-2.761 0.498v0c-1.27 0.095-2.536-0.034-3.799-0.388-1.263-0.353-2.411-1.036-3.443-2.048zM72.049-7.557v0c0.095 1.27 0.34 2.445 0.736 3.524 0.401 1.073 0.906 2.005 1.513 2.795 0.601 0.791 1.311 1.396 2.131 1.816 0.813 0.414 1.682 0.586 2.606 0.517v0c0.991-0.074 1.86-0.387 2.608-0.938 0.741-0.55 1.353-1.261 1.835-2.133 0.476-0.871 0.816-1.873 1.018-3.005 0.202-1.138 0.255-2.346 0.16-3.622v0c-0.096-1.276-0.335-2.462-0.718-3.556-0.389-1.087-0.894-2.026-1.514-2.815-0.621-0.789-1.338-1.401-2.153-1.834-0.821-0.433-1.724-0.613-2.708-0.539v0c-0.991 0.074-1.85 0.386-2.578 0.935-0.728 0.549-1.322 1.276-1.782 2.18-0.461 0.897-0.792 1.915-0.994 3.052-0.202 1.138-0.255 2.346-0.16 3.623zM108.905-23.763v0c2.171-0.11 4.107 0.232 5.809 1.027 1.709 0.794 3.133 1.89 4.272 3.288 1.146 1.397 2 3.033 2.562 4.906 0.556 1.881 0.742 3.847 0.559 5.9v0l-18.775 0.952c0.052 1.025 0.293 1.958 0.722 2.797 0.423 0.846 0.98 1.562 1.671 2.148 0.684 0.593 1.491 1.042 2.421 1.349 0.923 0.3 1.911 0.424 2.963 0.37v0c0.353-0.018 0.79-0.08 1.312-0.186 0.522-0.107 1.074-0.278 1.656-0.515 0.582-0.236 1.161-0.529 1.738-0.879 0.57-0.349 1.066-0.758 1.49-1.227v0l2.27 3.099c-0.985 1.365-2.164 2.416-3.535 3.153-1.371 0.744-3.141 1.171-5.312 1.281v0c-1.758 0.089-3.421-0.187-4.988-0.829-1.568-0.641-2.926-1.557-4.075-2.747-1.148-1.19-2.084-2.598-2.807-4.223-0.723-1.625-1.133-3.397-1.231-5.314v0c-0.096-1.884 0.134-3.682 0.688-5.392 0.554-1.704 1.336-3.205 2.345-4.505 1.002-1.299 2.221-2.345 3.655-3.139 1.428-0.793 2.958-1.231 4.59-1.314zM103.308-11.914l13.223-0.671c-0.044-0.859-0.246-1.696-0.608-2.512-0.361-0.809-0.839-1.536-1.433-2.181-0.593-0.644-1.3-1.146-2.119-1.504-0.819-0.359-1.692-0.528-2.619-0.508v0c-0.985 0.05-1.885 0.286-2.697 0.707-0.813 0.428-1.506 0.978-2.08 1.648-0.574 0.663-1.005 1.443-1.293 2.338-0.295 0.896-0.42 1.79-0.374 2.683zM163.574-5.067l4.034 3.438c-1.293 1.3-2.765 2.283-4.415 2.948-1.65 0.666-3.435 1.013-5.354 1.044v0c-2.113 0.033-4.062-0.32-5.848-1.06-1.785-0.739-3.352-1.852-4.702-3.337-1.35-1.479-2.419-3.346-3.207-5.601-0.782-2.261-1.196-4.879-1.242-7.852v0c-0.046-2.973 0.287-5.592 0.998-7.856 0.718-2.265 1.729-4.157 3.032-5.678 1.303-1.52 2.845-2.688 4.627-3.502 1.774-0.808 3.701-1.228 5.781-1.26v0c1.92-0.03 3.714 0.259 5.384 0.867 1.67 0.614 3.171 1.551 4.504 2.81v0l-3.925 3.611c-0.814-0.914-1.711-1.57-2.69-1.968-0.986-0.405-2.006-0.599-3.06-0.583v0c-1.18 0.018-2.303 0.259-3.369 0.723-1.06 0.47-2.004 1.245-2.834 2.324-0.837 1.086-1.478 2.48-1.926 4.18-0.454 1.701-0.678 3.781-0.673 6.241v0c0.071 2.399 0.349 4.442 0.835 6.128 0.493 1.686 1.154 3.059 1.985 4.12 0.83 1.054 1.768 1.823 2.816 2.307 1.048 0.477 2.145 0.707 3.291 0.689v0c1.153-0.018 2.23-0.241 3.23-0.671 1-0.436 1.909-1.123 2.728-2.062zM190.69-25.116l-0.036 6.05c-0.892-0.265-1.978-0.418-3.258-0.46v0c-1.147-0.007-2.291 0.123-3.432 0.39-1.135 0.267-2.038 0.718-2.708 1.354v0l-0.061 10.259-0.001 0.1-0.057 9.49-5.81-0.034 0.162-27.04 5.18 0.031 0.613 2.784c0.476-0.477 0.982-0.907 1.518-1.291 0.529-0.377 1.144-0.683 1.846-0.919 0.708-0.236 1.542-0.414 2.503-0.535 0.954-0.128 2.134-0.187 3.541-0.179zM216.433-11.831l-0.158 6.228-0.009 0.38c-0.007 0.26-0.003 0.637 0.011 1.13 0.021 0.494 0.071 0.999 0.152 1.515 0.087 0.516 0.229 0.983 0.425 1.401 0.196 0.418 0.469 0.699 0.818 0.841v0l-1.61 3.17c-0.42-0.011-0.857-0.118-1.312-0.323-0.462-0.205-0.905-0.486-1.33-0.844-0.418-0.364-0.774-0.766-1.069-1.208-0.289-0.441-0.507-0.916-0.654-1.427v0c-0.24 0.534-0.646 1.027-1.218 1.48-0.571 0.446-1.212 0.843-1.921 1.192-0.716 0.349-1.483 0.609-2.301 0.782-0.818 0.173-1.58 0.25-2.286 0.232v0c-1.086-0.027-2.129-0.197-3.128-0.509-0.999-0.312-1.874-0.798-2.624-1.457-0.75-0.659-1.329-1.521-1.735-2.585-0.406-1.071-0.59-2.372-0.552-3.905v0c0.037-1.466 0.382-2.728 1.036-3.785 0.647-1.057 1.469-1.917 2.466-2.578 0.99-0.662 2.113-1.144 3.368-1.446 1.255-0.302 2.522-0.436 3.801-0.404v0l4.069 0.103c0.04-1.566-0.009-2.814-0.145-3.745-0.136-0.937-0.389-1.624-0.758-2.059-0.376-0.443-0.842-0.728-1.399-0.856-0.557-0.127-1.219-0.201-1.985-0.22v0c-0.7-0.018-1.365 0.055-1.996 0.219-0.624 0.158-1.203 0.35-1.735 0.576-0.533 0.227-1.002 0.478-1.41 0.755-0.407 0.276-0.709 0.492-0.907 0.647v0l-2.076-3.353c0.329-0.345 0.818-0.693 1.467-1.044 0.649-0.35 1.394-0.662 2.235-0.933 0.834-0.266 1.743-0.473 2.726-0.621 0.978-0.155 1.993-0.22 3.046-0.193v0c0.96 0.024 1.894 0.145 2.802 0.361 0.901 0.216 1.723 0.557 2.465 1.022 0.742 0.466 1.38 1.082 1.914 1.849 0.541 0.767 0.91 1.71 1.108 2.829v0c0.198 1.125 0.323 2.256 0.375 3.391 0.051 1.142 0.063 2.272 0.034 3.392zM210.469-3.83l0.167-6.617-3.069-0.078c-0.64-0.016-1.311 0.03-2.014 0.139-0.71 0.109-1.372 0.332-1.988 0.67-0.615 0.338-1.131 0.828-1.547 1.471-0.416 0.643-0.638 1.478-0.664 2.504v0c-0.04 1.599 0.29 2.758 0.992 3.476 0.702 0.725 1.739 1.104 3.113 1.139v0c0.96 0.024 1.886-0.209 2.778-0.699 0.893-0.491 1.637-1.159 2.232-2.005zM238.004-29.491v0c-0.639-0.03-1.183 0.105-1.63 0.405-0.441 0.3-0.821 0.73-1.141 1.288-0.313 0.566-0.55 1.219-0.711 1.96-0.161 0.747-0.278 1.535-0.35 2.366v0l4.166 0.193-0.182 3.925-4.255-0.196-0.106 2.297-0.962 20.788-5.844-0.27 0.962-20.788 0.106-2.298-3.546-0.164 0.181-3.925 3.637 0.168c0.164-1.374 0.418-2.684 0.762-3.929 0.345-1.245 0.848-2.327 1.511-3.244 0.669-0.91 1.55-1.63 2.643-2.16 1.099-0.523 2.464-0.747 4.095-0.672v0c0.479 0.022 0.987 0.086 1.523 0.191 0.542 0.105 1.074 0.227 1.595 0.364 0.521 0.138 1.001 0.297 1.44 0.477 0.439 0.18 0.78 0.37 1.024 0.568v0l-2.027 3.37c-0.434-0.28-0.96-0.465-1.577-0.554-0.623-0.096-1.061-0.149-1.314-0.16zM256.406-18.271l-0.934 14.881c-0.068 1.085 0.025 1.939 0.28 2.563 0.248 0.623 0.625 1.111 1.13 1.463 0.506 0.352 1.082 0.589 1.729 0.71 0.647 0.121 1.34 0.204 2.079 0.251v0l-0.223 3.543c-0.423 0.04-0.842 0.061-1.256 0.061v0c-0.355 0.011-0.779 0.011-1.273 0.001-0.493-0.018-0.979-0.041-1.458-0.072v0c-0.479-0.03-0.964-0.077-1.454-0.141-0.497-0.065-0.92-0.138-1.269-0.22v0c-1.072-0.261-1.888-0.787-2.446-1.577-0.559-0.783-0.959-1.64-1.201-2.57-0.249-0.931-0.386-1.828-0.412-2.691-0.026-0.87-0.023-1.544 0.007-2.024v0l0.913-14.541-3.543-0.223 0.246-3.922 3.543 0.223 0.481-7.665 5.789 0.363-0.481 7.665 4.311 0.271-0.246 3.922zM280.511-20.641v0c2.166 0.178 4.04 0.774 5.622 1.788 1.589 1.014 2.855 2.289 3.799 3.824 0.95 1.537 1.58 3.271 1.889 5.203 0.302 1.938 0.226 3.912-0.227 5.921v0l-18.736-1.543c-0.084 1.023 0.031 1.979 0.346 2.868 0.308 0.895 0.765 1.678 1.371 2.351 0.6 0.678 1.34 1.231 2.222 1.658 0.875 0.42 1.838 0.673 2.887 0.759v0c0.352 0.029 0.794 0.025 1.325-0.011 0.531-0.036 1.101-0.133 1.71-0.291 0.608-0.157 1.221-0.371 1.839-0.641 0.611-0.271 1.157-0.61 1.639-1.019v0l1.839 3.373c-1.158 1.222-2.465 2.108-3.921 2.657-1.457 0.556-3.269 0.744-5.435 0.565v0c-1.754-0.144-3.366-0.638-4.834-1.481-1.469-0.843-2.694-1.931-3.675-3.263-0.981-1.332-1.722-2.851-2.223-4.558-0.502-1.707-0.674-3.517-0.516-5.431v0c0.155-1.88 0.62-3.631 1.396-5.253 0.775-1.615 1.749-3 2.92-4.154 1.165-1.155 2.512-2.031 4.04-2.627 1.521-0.597 3.095-0.829 4.723-0.695zM273.394-9.638l13.195 1.087c0.071-0.857-0.019-1.714-0.27-2.571-0.251-0.85-0.628-1.634-1.131-2.351-0.503-0.717-1.136-1.308-1.901-1.772-0.764-0.464-1.607-0.748-2.529-0.85v0c-0.983-0.081-1.906 0.034-2.767 0.344-0.862 0.317-1.622 0.769-2.279 1.357-0.657 0.581-1.187 1.297-1.592 2.147-0.411 0.849-0.653 1.719-0.726 2.609zM316.345-17.094l-0.624 6.018c-0.862-0.351-1.927-0.609-3.198-0.774v0c-1.141-0.118-2.292-0.1-3.454 0.053-1.155 0.155-2.098 0.516-2.827 1.084v0l-1.059 10.206-0.01 0.099-0.98 9.439-5.779-0.599 2.792-26.896 5.152 0.535 0.34 2.83c0.52-0.429 1.066-0.808 1.636-1.137 0.563-0.324 1.205-0.569 1.926-0.735 0.728-0.166 1.575-0.262 2.543-0.289 0.962-0.034 2.143 0.021 3.542 0.166zM319.174 8.53v0l2.892-3.556c0.581 0.521 1.285 1.027 2.112 1.518 0.827 0.484 1.906 0.807 3.236 0.969v0c1.747 0.213 3.146 0.112 4.198-0.303 1.046-0.423 1.632-1.157 1.76-2.203v0c0.093-0.761-0.117-1.408-0.629-1.941-0.513-0.526-1.186-1.011-2.019-1.455-0.833-0.438-1.731-0.87-2.692-1.296-0.963-0.42-1.847-0.904-2.654-1.453v0c-1.572-1.099-2.718-2.189-3.439-3.271-0.72-1.089-0.981-2.44-0.784-4.055v0c0.163-1.337 0.585-2.477 1.264-3.422 0.68-0.951 1.505-1.713 2.476-2.286 0.97-0.573 2.049-0.965 3.236-1.177 1.187-0.204 2.366-0.235 3.537-0.092v0c1.588 0.194 3.027 0.538 4.317 1.031 1.296 0.494 2.515 1.214 3.655 2.159v0l-2.338 3.724c-0.887-0.652-1.875-1.149-2.961-1.49-1.086-0.348-2.168-0.587-3.247-0.718v0c-1.171-0.143-2.13 0.009-2.877 0.454-0.752 0.439-1.196 1.211-1.33 2.316v0c-0.105 0.86 0.124 1.573 0.686 2.139 0.555 0.571 1.302 1.106 2.242 1.604 0.939 0.504 1.942 1.013 3.007 1.525 1.058 0.519 2.038 1.129 2.94 1.83 0.894 0.707 1.605 1.543 2.132 2.507 0.526 0.971 0.704 2.155 0.533 3.551v0c-0.166 1.363-0.583 2.518-1.249 3.464-0.66 0.954-1.491 1.705-2.492 2.255-1.001 0.556-2.127 0.919-3.377 1.088-1.243 0.171-2.546 0.173-3.909 0.006v0c-0.827-0.101-1.585-0.217-2.275-0.348-0.696-0.132-1.365-0.318-2.007-0.557-0.649-0.24-1.288-0.56-1.918-0.96-0.63-0.399-1.305-0.918-2.026-1.557z" opacity="1" transform="matrix(1,0,0,1,0,0)" fill="white" class="wordmark-text-0" id="SvgjsPath1985"></path></svg></g></svg></g></svg></g></svg></g><g transform="matrix(1,0,0,1,147.74602109233064,0)"><svg viewBox="0 0 100.02795781533877 87.17517408466549" height="87.17517408466549" width="100.02795781533877"><g><svg xmlns="http://www.w3.org/2000/svg" xmlns:xlink="http://www.w3.org/1999/xlink" version="1.0" x="0" y="0" viewBox="1.118 4.1185758 47.921 41.76353899999999" enable-background="new 0 0 50 50" xml:space="preserve" height="87.17517408466549" width="100.02795781533877" class="icon-icon-0" data-fill-palette-color="accent" id="SvgjsSvg1984"><g fill="black"><g fill="black"><polygon fill="black" points="10.821,24.951 21,32.193 21,39.035 1.118,24.891 21,11.118 21,17.9   "></polygon></g><g fill="black"><polygon fill="black" points="49.039,25.277 35.815,16.063 34.219,21.712 39.475,25.338 31.411,30.97 29,38.79 29,39.424   "></polygon></g><rect x="25.577" y="3.983" transform="matrix(0.9606 0.278 -0.278 0.9606 8.0575 -6.8179)" fill="black" width="4.981" height="42.035"></rect></g></svg></g></svg></g><g></g></svg></g><defs><mask></mask></defs></svg><rect width="395.5199999999999" height="157.36650304353142" fill="black" stroke="none" visibility="hidden"></rect></g></mask><linearGradient x1="0.054" x2="0.941" y1="0.5" y2="0.5" id="45df6c17-3bf9-4330-aba0-116a7db8063f"><stop stop-color="#0f3054" offset="0"></stop><stop stop-color="#3b8dcb" offset="0.498"></stop><stop stop-color="#0f3054" offset="1"></stop></linearGradient><rect width="395.5199999999999" height="157.36650304353142" fill="url(#45df6c17-3bf9-4330-aba0-116a7db8063f)" mask="url(#74e432f5-8ce3-4403-affe-6b47b2b44b2c)" data-fill-palette-color="primary"></rect></svg><rect width="395.5199999999999" height="157.36650304353142" fill="none" stroke="none" visibility="hidden"></rect></g></svg></g></svg>